<svg xmlns="http://www.w3.org/2000/svg" viewBox="0 0 1600 1180" preserveAspectRatio="xMidYMid slice">
<defs>
<radialGradient id="bg" cx="50%" cy="42%" r="78%"><stop offset="0%" stop-color="#2a1b46"/><stop offset="55%" stop-color="#180f2c"/><stop offset="100%" stop-color="#0b0714"/></radialGradient>
<radialGradient id="gl" cx="50%" cy="42%" r="42%"><stop offset="0%" stop-color="#6b4bb0" stop-opacity="0.34"/><stop offset="100%" stop-color="#6b4bb0" stop-opacity="0"/></radialGradient>
<radialGradient id="vig" cx="50%" cy="46%" r="75%"><stop offset="62%" stop-color="#000" stop-opacity="0"/><stop offset="100%" stop-color="#000" stop-opacity="0.55"/></radialGradient>
</defs>
<rect width="1600" height="1180" fill="url(#bg)"/><rect width="1600" height="1180" fill="url(#gl)"/>
<g><circle cx="518.1" cy="178.0" r="1.64" fill="#cfe0f2" opacity="0.13"/><circle cx="857.4" cy="431.5" r="0.69" fill="#cfe0f2" opacity="0.3"/><circle cx="60.0" cy="511.7" r="0.71" fill="#cfe0f2" opacity="0.14"/><circle cx="679.2" cy="975.7" r="0.8" fill="#cfe0f2" opacity="0.19"/><circle cx="1003.9" cy="1118.3" r="1.52" fill="#cfe0f2" opacity="0.26"/><circle cx="1562.0" cy="55.0" r="1.97" fill="#cfe0f2" opacity="0.22"/><circle cx="230.8" cy="139.0" r="1.09" fill="#cfe0f2" opacity="0.43"/><circle cx="289.2" cy="686.3" r="1.62" fill="#cfe0f2" opacity="0.25"/><circle cx="876.4" cy="74.1" r="0.7" fill="#cfe0f2" opacity="0.18"/><circle cx="1088.6" cy="504.6" r="1.1" fill="#cfe0f2" opacity="0.33"/><circle cx="725.1" cy="353.7" r="1.87" fill="#cfe0f2" opacity="0.38"/><circle cx="390.6" cy="677.8" r="1.44" fill="#cfe0f2" opacity="0.45"/><circle cx="1167.1" cy="339.8" r="2.17" fill="#cfe0f2" opacity="0.15"/><circle cx="669.0" cy="893.4" r="0.84" fill="#cfe0f2" opacity="0.3"/><circle cx="62.7" cy="788.5" r="1.82" fill="#cfe0f2" opacity="0.33"/><circle cx="1400.8" cy="370.2" r="1.71" fill="#cfe0f2" opacity="0.34"/><circle cx="927.8" cy="538.3" r="1.94" fill="#cfe0f2" opacity="0.48"/><circle cx="758.6" cy="783.7" r="0.7" fill="#cfe0f2" opacity="0.38"/><circle cx="1035.4" cy="1171.9" r="1.92" fill="#cfe0f2" opacity="0.21"/><circle cx="617.3" cy="789.0" r="0.64" fill="#cfe0f2" opacity="0.28"/><circle cx="268.9" cy="138.2" r="0.69" fill="#cfe0f2" opacity="0.41"/><circle cx="206.9" cy="292.2" r="1.23" fill="#cfe0f2" opacity="0.45"/><circle cx="128.9" cy="530.0" r="1.48" fill="#cfe0f2" opacity="0.45"/><circle cx="1310.8" cy="1019.5" r="1.05" fill="#cfe0f2" opacity="0.27"/><circle cx="574.0" cy="1043.3" r="2.13" fill="#cfe0f2" opacity="0.16"/><circle cx="281.9" cy="273.7" r="0.97" fill="#cfe0f2" opacity="0.29"/><circle cx="942.6" cy="310.0" r="0.61" fill="#cfe0f2" opacity="0.27"/><circle cx="590.8" cy="668.3" r="2.12" fill="#cfe0f2" opacity="0.38"/><circle cx="824.8" cy="728.8" r="1.68" fill="#cfe0f2" opacity="0.12"/><circle cx="1439.3" cy="920.4" r="2.0" fill="#cfe0f2" opacity="0.42"/><circle cx="627.8" cy="470.8" r="0.77" fill="#cfe0f2" opacity="0.35"/><circle cx="99.6" cy="79.5" r="0.93" fill="#cfe0f2" opacity="0.16"/><circle cx="544.1" cy="62.0" r="0.6" fill="#cfe0f2" opacity="0.16"/><circle cx="162.3" cy="429.1" r="0.64" fill="#cfe0f2" opacity="0.45"/><circle cx="982.5" cy="175.3" r="1.0" fill="#cfe0f2" opacity="0.24"/><circle cx="582.7" cy="145.0" r="1.96" fill="#cfe0f2" opacity="0.5"/><circle cx="745.6" cy="570.9" r="0.74" fill="#cfe0f2" opacity="0.14"/><circle cx="548.2" cy="312.4" r="1.93" fill="#cfe0f2" opacity="0.16"/><circle cx="37.0" cy="1122.2" r="1.45" fill="#cfe0f2" opacity="0.16"/><circle cx="869.1" cy="31.9" r="1.44" fill="#cfe0f2" opacity="0.49"/><circle cx="1381.3" cy="821.5" r="1.02" fill="#cfe0f2" opacity="0.25"/><circle cx="267.3" cy="910.9" r="1.45" fill="#cfe0f2" opacity="0.41"/></g>
<g fill="none" stroke="#8f6fe0" stroke-opacity="0.15">
<circle cx="800" cy="500" r="420" stroke-width="1" stroke-dasharray="1 16" stroke-opacity="0.09"/>
<circle cx="800" cy="500" r="360" stroke-width="2"/>
<circle cx="800" cy="500" r="300" stroke-width="1" stroke-dasharray="3 12"/>
<circle cx="800" cy="500" r="238" stroke-width="1"/>
</g>
<polygon points="800.0,200.0 1085.3,407.3 976.3,742.7 623.7,742.7 514.7,407.3" fill="none" stroke="#8f6fe0" stroke-opacity="0.22" stroke-width="2"/>
<g><circle cx="800.0" cy="200.0" r="26" fill="#eef0ea" opacity="0.12"/><circle cx="800.0" cy="200.0" r="8" fill="#eef0ea" opacity="0.85"/><circle cx="1085.3" cy="407.3" r="26" fill="#4aa3e6" opacity="0.12"/><circle cx="1085.3" cy="407.3" r="8" fill="#4aa3e6" opacity="0.85"/><circle cx="976.3" cy="742.7" r="26" fill="#9b86c4" opacity="0.12"/><circle cx="976.3" cy="742.7" r="8" fill="#9b86c4" opacity="0.85"/><circle cx="623.7" cy="742.7" r="26" fill="#e0655c" opacity="0.12"/><circle cx="623.7" cy="742.7" r="8" fill="#e0655c" opacity="0.85"/><circle cx="514.7" cy="407.3" r="26" fill="#46b277" opacity="0.12"/><circle cx="514.7" cy="407.3" r="8" fill="#46b277" opacity="0.85"/></g>
<rect width="1600" height="1180" fill="url(#vig)"/>
</svg>