<svg xmlns="http://www.w3.org/2000/svg" viewBox="0 0 1600 1180" preserveAspectRatio="xMidYMid slice">
<defs>
<radialGradient id="bg" cx="50%" cy="42%" r="78%"><stop offset="0%" stop-color="#14304d"/><stop offset="55%" stop-color="#0b1c30"/><stop offset="100%" stop-color="#060f1c"/></radialGradient>
<radialGradient id="gl" cx="50%" cy="42%" r="42%"><stop offset="0%" stop-color="#3f7fd0" stop-opacity="0.34"/><stop offset="100%" stop-color="#3f7fd0" stop-opacity="0"/></radialGradient>
<radialGradient id="vig" cx="50%" cy="46%" r="75%"><stop offset="62%" stop-color="#000" stop-opacity="0"/><stop offset="100%" stop-color="#000" stop-opacity="0.55"/></radialGradient>
</defs>
<rect width="1600" height="1180" fill="url(#bg)"/><rect width="1600" height="1180" fill="url(#gl)"/>
<g><circle cx="723.8" cy="660.5" r="2.08" fill="#cfe0f2" opacity="0.29"/><circle cx="812.5" cy="693.1" r="0.9" fill="#cfe0f2" opacity="0.3"/><circle cx="1007.8" cy="935.7" r="0.75" fill="#cfe0f2" opacity="0.22"/><circle cx="145.1" cy="955.4" r="1.71" fill="#cfe0f2" opacity="0.12"/><circle cx="1571.5" cy="1138.4" r="1.65" fill="#cfe0f2" opacity="0.35"/><circle cx="252.0" cy="17.7" r="1.45" fill="#cfe0f2" opacity="0.12"/><circle cx="304.3" cy="285.5" r="0.65" fill="#cfe0f2" opacity="0.29"/><circle cx="704.8" cy="994.1" r="1.43" fill="#cfe0f2" opacity="0.36"/><circle cx="799.6" cy="781.7" r="1.33" fill="#cfe0f2" opacity="0.21"/><circle cx="1596.2" cy="1174.9" r="1.94" fill="#cfe0f2" opacity="0.38"/><circle cx="504.4" cy="271.0" r="1.06" fill="#cfe0f2" opacity="0.13"/><circle cx="1226.1" cy="472.5" r="1.95" fill="#cfe0f2" opacity="0.25"/><circle cx="1532.9" cy="999.8" r="0.6" fill="#cfe0f2" opacity="0.18"/><circle cx="1456.4" cy="554.6" r="2.17" fill="#cfe0f2" opacity="0.26"/><circle cx="116.9" cy="742.8" r="1.85" fill="#cfe0f2" opacity="0.21"/><circle cx="139.4" cy="392.5" r="2.14" fill="#cfe0f2" opacity="0.4"/><circle cx="188.8" cy="290.7" r="0.76" fill="#cfe0f2" opacity="0.12"/><circle cx="1275.2" cy="209.7" r="1.49" fill="#cfe0f2" opacity="0.28"/><circle cx="305.1" cy="863.6" r="0.81" fill="#cfe0f2" opacity="0.36"/><circle cx="186.4" cy="496.5" r="0.94" fill="#cfe0f2" opacity="0.21"/><circle cx="1553.5" cy="948.0" r="1.09" fill="#cfe0f2" opacity="0.45"/><circle cx="337.1" cy="465.2" r="1.97" fill="#cfe0f2" opacity="0.36"/><circle cx="160.5" cy="1167.4" r="0.94" fill="#cfe0f2" opacity="0.2"/><circle cx="1236.3" cy="388.2" r="1.07" fill="#cfe0f2" opacity="0.13"/><circle cx="144.2" cy="687.6" r="0.99" fill="#cfe0f2" opacity="0.34"/><circle cx="594.7" cy="534.8" r="2.13" fill="#cfe0f2" opacity="0.29"/><circle cx="919.3" cy="1022.5" r="0.89" fill="#cfe0f2" opacity="0.16"/><circle cx="1453.5" cy="965.0" r="1.0" fill="#cfe0f2" opacity="0.18"/><circle cx="1183.1" cy="1109.7" r="0.91" fill="#cfe0f2" opacity="0.48"/><circle cx="1411.5" cy="712.2" r="1.27" fill="#cfe0f2" opacity="0.14"/><circle cx="61.9" cy="1136.0" r="0.98" fill="#cfe0f2" opacity="0.38"/><circle cx="411.2" cy="972.0" r="1.55" fill="#cfe0f2" opacity="0.22"/><circle cx="280.7" cy="850.0" r="0.71" fill="#cfe0f2" opacity="0.19"/><circle cx="895.0" cy="1005.8" r="1.58" fill="#cfe0f2" opacity="0.21"/><circle cx="1467.8" cy="240.7" r="0.63" fill="#cfe0f2" opacity="0.21"/><circle cx="713.1" cy="71.3" r="0.88" fill="#cfe0f2" opacity="0.25"/><circle cx="915.5" cy="155.3" r="1.18" fill="#cfe0f2" opacity="0.46"/><circle cx="1568.8" cy="775.2" r="1.71" fill="#cfe0f2" opacity="0.33"/><circle cx="224.6" cy="41.4" r="0.63" fill="#cfe0f2" opacity="0.46"/><circle cx="1121.6" cy="1136.1" r="0.63" fill="#cfe0f2" opacity="0.35"/><circle cx="771.6" cy="862.0" r="1.11" fill="#cfe0f2" opacity="0.5"/><circle cx="120.4" cy="644.4" r="1.78" fill="#cfe0f2" opacity="0.46"/><circle cx="1179.3" cy="830.4" r="1.87" fill="#cfe0f2" opacity="0.47"/><circle cx="562.9" cy="808.5" r="2.04" fill="#cfe0f2" opacity="0.45"/><circle cx="667.4" cy="932.8" r="1.98" fill="#cfe0f2" opacity="0.33"/><circle cx="999.9" cy="451.2" r="1.53" fill="#cfe0f2" opacity="0.34"/><circle cx="128.3" cy="754.5" r="2.19" fill="#cfe0f2" opacity="0.45"/><circle cx="1165.1" cy="458.4" r="1.78" fill="#cfe0f2" opacity="0.33"/><circle cx="704.8" cy="989.3" r="0.73" fill="#cfe0f2" opacity="0.4"/><circle cx="47.7" cy="709.5" r="1.37" fill="#cfe0f2" opacity="0.19"/><circle cx="1117.3" cy="586.8" r="1.58" fill="#cfe0f2" opacity="0.47"/><circle cx="409.3" cy="13.3" r="1.08" fill="#cfe0f2" opacity="0.37"/><circle cx="324.1" cy="200.1" r="2.05" fill="#cfe0f2" opacity="0.36"/><circle cx="707.1" cy="1052.2" r="1.12" fill="#cfe0f2" opacity="0.37"/><circle cx="317.6" cy="508.5" r="1.89" fill="#cfe0f2" opacity="0.47"/><circle cx="1408.4" cy="453.6" r="1.53" fill="#cfe0f2" opacity="0.23"/><circle cx="217.9" cy="585.8" r="1.94" fill="#cfe0f2" opacity="0.44"/><circle cx="1137.9" cy="1121.0" r="1.04" fill="#cfe0f2" opacity="0.17"/><circle cx="721.0" cy="324.7" r="0.94" fill="#cfe0f2" opacity="0.27"/><circle cx="1001.2" cy="582.8" r="1.1" fill="#cfe0f2" opacity="0.44"/><circle cx="1571.3" cy="533.9" r="0.72" fill="#cfe0f2" opacity="0.11"/><circle cx="1396.5" cy="49.0" r="1.73" fill="#cfe0f2" opacity="0.33"/><circle cx="494.4" cy="934.0" r="0.63" fill="#cfe0f2" opacity="0.15"/><circle cx="727.7" cy="29.2" r="1.93" fill="#cfe0f2" opacity="0.19"/><circle cx="225.4" cy="55.4" r="1.61" fill="#cfe0f2" opacity="0.28"/><circle cx="1007.9" cy="773.0" r="1.89" fill="#cfe0f2" opacity="0.48"/><circle cx="1095.2" cy="235.2" r="1.36" fill="#cfe0f2" opacity="0.17"/><circle cx="17.2" cy="557.2" r="1.74" fill="#cfe0f2" opacity="0.17"/><circle cx="435.8" cy="408.0" r="1.72" fill="#cfe0f2" opacity="0.31"/><circle cx="983.1" cy="892.3" r="1.23" fill="#cfe0f2" opacity="0.42"/></g>
<g fill="none" stroke="#4a86c8" stroke-opacity="0.15">
<circle cx="800" cy="500" r="420" stroke-width="1" stroke-dasharray="1 16" stroke-opacity="0.09"/>
<circle cx="800" cy="500" r="360" stroke-width="2"/>
<circle cx="800" cy="500" r="300" stroke-width="1" stroke-dasharray="3 12"/>
<circle cx="800" cy="500" r="238" stroke-width="1"/>
</g>
<polygon points="800.0,200.0 1085.3,407.3 976.3,742.7 623.7,742.7 514.7,407.3" fill="none" stroke="#4a86c8" stroke-opacity="0.22" stroke-width="2"/>
<g><circle cx="800.0" cy="200.0" r="26" fill="#eef0ea" opacity="0.12"/><circle cx="800.0" cy="200.0" r="8" fill="#eef0ea" opacity="0.85"/><circle cx="1085.3" cy="407.3" r="26" fill="#4aa3e6" opacity="0.12"/><circle cx="1085.3" cy="407.3" r="8" fill="#4aa3e6" opacity="0.85"/><circle cx="976.3" cy="742.7" r="26" fill="#9b86c4" opacity="0.12"/><circle cx="976.3" cy="742.7" r="8" fill="#9b86c4" opacity="0.85"/><circle cx="623.7" cy="742.7" r="26" fill="#e0655c" opacity="0.12"/><circle cx="623.7" cy="742.7" r="8" fill="#e0655c" opacity="0.85"/><circle cx="514.7" cy="407.3" r="26" fill="#46b277" opacity="0.12"/><circle cx="514.7" cy="407.3" r="8" fill="#46b277" opacity="0.85"/></g>
<rect width="1600" height="1180" fill="url(#vig)"/>
</svg>