<svg xmlns="http://www.w3.org/2000/svg" viewBox="0 0 1600 1180" preserveAspectRatio="xMidYMid slice">
<defs>
<radialGradient id="bg" cx="50%" cy="42%" r="78%"><stop offset="0%" stop-color="#173d2b"/><stop offset="55%" stop-color="#0d2318"/><stop offset="100%" stop-color="#08160f"/></radialGradient>
<radialGradient id="gl" cx="50%" cy="42%" r="42%"><stop offset="0%" stop-color="#2f7a52" stop-opacity="0.34"/><stop offset="100%" stop-color="#2f7a52" stop-opacity="0"/></radialGradient>
<radialGradient id="vig" cx="50%" cy="46%" r="75%"><stop offset="62%" stop-color="#000" stop-opacity="0"/><stop offset="100%" stop-color="#000" stop-opacity="0.55"/></radialGradient>
</defs>
<rect width="1600" height="1180" fill="url(#bg)"/><rect width="1600" height="1180" fill="url(#gl)"/>
<g><circle cx="1479.8" cy="1119.4" r="2.03" fill="#cfe0f2" opacity="0.13"/><circle cx="947.2" cy="500.0" r="1.45" fill="#cfe0f2" opacity="0.15"/><circle cx="307.2" cy="524.6" r="0.95" fill="#cfe0f2" opacity="0.28"/><circle cx="39.6" cy="101.2" r="1.74" fill="#cfe0f2" opacity="0.27"/><circle cx="820.2" cy="866.4" r="1.17" fill="#cfe0f2" opacity="0.12"/><circle cx="1253.0" cy="695.2" r="1.65" fill="#cfe0f2" opacity="0.35"/><circle cx="1553.2" cy="428.1" r="1.82" fill="#cfe0f2" opacity="0.25"/><circle cx="915.3" cy="779.4" r="1.1" fill="#cfe0f2" opacity="0.13"/><circle cx="758.5" cy="847.1" r="1.54" fill="#cfe0f2" opacity="0.28"/><circle cx="1027.8" cy="214.8" r="0.89" fill="#cfe0f2" opacity="0.23"/><circle cx="1305.4" cy="230.8" r="0.78" fill="#cfe0f2" opacity="0.14"/><circle cx="62.3" cy="325.2" r="1.52" fill="#cfe0f2" opacity="0.43"/><circle cx="529.3" cy="436.2" r="1.06" fill="#cfe0f2" opacity="0.22"/><circle cx="1244.1" cy="647.8" r="1.01" fill="#cfe0f2" opacity="0.14"/><circle cx="1254.1" cy="834.4" r="1.93" fill="#cfe0f2" opacity="0.2"/><circle cx="872.8" cy="1084.1" r="1.55" fill="#cfe0f2" opacity="0.48"/><circle cx="267.6" cy="1150.5" r="0.69" fill="#cfe0f2" opacity="0.27"/><circle cx="37.4" cy="955.3" r="1.7" fill="#cfe0f2" opacity="0.49"/><circle cx="1287.9" cy="1119.6" r="1.46" fill="#cfe0f2" opacity="0.5"/><circle cx="1198.4" cy="408.4" r="2.16" fill="#cfe0f2" opacity="0.25"/><circle cx="309.3" cy="89.5" r="1.35" fill="#cfe0f2" opacity="0.18"/><circle cx="1493.7" cy="1121.5" r="0.95" fill="#cfe0f2" opacity="0.14"/><circle cx="846.4" cy="200.2" r="1.47" fill="#cfe0f2" opacity="0.43"/><circle cx="404.9" cy="497.7" r="2.04" fill="#cfe0f2" opacity="0.28"/><circle cx="548.4" cy="1052.9" r="1.9" fill="#cfe0f2" opacity="0.46"/><circle cx="1100.4" cy="486.9" r="1.71" fill="#cfe0f2" opacity="0.43"/><circle cx="1023.2" cy="281.3" r="1.07" fill="#cfe0f2" opacity="0.26"/><circle cx="1234.7" cy="657.4" r="1.48" fill="#cfe0f2" opacity="0.43"/><circle cx="173.5" cy="744.9" r="1.13" fill="#cfe0f2" opacity="0.32"/><circle cx="1336.6" cy="293.1" r="2.12" fill="#cfe0f2" opacity="0.13"/><circle cx="899.2" cy="639.3" r="0.98" fill="#cfe0f2" opacity="0.32"/><circle cx="753.2" cy="530.5" r="1.75" fill="#cfe0f2" opacity="0.1"/><circle cx="603.5" cy="927.0" r="0.83" fill="#cfe0f2" opacity="0.45"/><circle cx="325.7" cy="803.7" r="0.88" fill="#cfe0f2" opacity="0.28"/></g>
<g fill="none" stroke="#46b277" stroke-opacity="0.15">
<circle cx="800" cy="500" r="420" stroke-width="1" stroke-dasharray="1 16" stroke-opacity="0.09"/>
<circle cx="800" cy="500" r="360" stroke-width="2"/>
<circle cx="800" cy="500" r="300" stroke-width="1" stroke-dasharray="3 12"/>
<circle cx="800" cy="500" r="238" stroke-width="1"/>
</g>
<polygon points="800.0,200.0 1085.3,407.3 976.3,742.7 623.7,742.7 514.7,407.3" fill="none" stroke="#46b277" stroke-opacity="0.22" stroke-width="2"/>
<g><circle cx="800.0" cy="200.0" r="26" fill="#eef0ea" opacity="0.12"/><circle cx="800.0" cy="200.0" r="8" fill="#eef0ea" opacity="0.85"/><circle cx="1085.3" cy="407.3" r="26" fill="#4aa3e6" opacity="0.12"/><circle cx="1085.3" cy="407.3" r="8" fill="#4aa3e6" opacity="0.85"/><circle cx="976.3" cy="742.7" r="26" fill="#9b86c4" opacity="0.12"/><circle cx="976.3" cy="742.7" r="8" fill="#9b86c4" opacity="0.85"/><circle cx="623.7" cy="742.7" r="26" fill="#e0655c" opacity="0.12"/><circle cx="623.7" cy="742.7" r="8" fill="#e0655c" opacity="0.85"/><circle cx="514.7" cy="407.3" r="26" fill="#46b277" opacity="0.12"/><circle cx="514.7" cy="407.3" r="8" fill="#46b277" opacity="0.85"/></g>
<rect width="1600" height="1180" fill="url(#vig)"/>
</svg>